<svg version="1.1" xmlns="http://www.w3.org/2000/svg" viewBox="0 0 2259.365818621607 1777.7938232337997" width="2259.365818621607" height="1777.7938232337997" filter="invert(93%) hue-rotate(180deg)">
  <!-- svg-source:excalidraw -->
  
  <defs>
    <style class="style-fonts">
      @font-face {
        font-family: "Virgil";
        src: url("https://excalidraw.com/Virgil.woff2");
      }
      @font-face {
        font-family: "Cascadia";
        src: url("https://excalidraw.com/Cascadia.woff2");
      }
      @font-face {
        font-family: "Assistant";
        src: url("https://excalidraw.com/Assistant-Regular.woff2");
      }
    </style>
    
  </defs>
  <rect x="0" y="0" width="2259.365818621607" height="1777.7938232337997" fill="#ffffff"></rect><g transform="translate(940.7165632482493 10) rotate(0 188.9663460625542 66.5)"><text x="188.9663460625542" y="93.20639999999989" font-family="Virgil, Segoe UI Emoji" font-size="106.39999999999986px" fill="#1e1e1e" text-anchor="middle" style="white-space: pre;" direction="ltr" dominant-baseline="alphabetic">Angular</text></g><g stroke-linecap="round"><g transform="translate(936.1829093108036 128.22222222222285) rotate(0 193.50000000000006 0)"><path d="M0 0 C64.5 0, 322.5 0, 387 0 M0 0 C64.5 0, 322.5 0, 387 0" stroke="#1e1e1e" stroke-width="2" fill="none"></path></g></g><mask></mask><g stroke-linecap="round" transform="translate(705.1394783333365 323.8222896193861) rotate(0 441.0000000000001 290.00000000000006)"><path d="M32 0 C321.28 0, 610.56 0, 850 0 M32 0 C218.77 0, 405.54 0, 850 0 M850 0 C871.33 0, 882 10.67, 882 32 M850 0 C871.33 0, 882 10.67, 882 32 M882 32 C882 203.71, 882 375.42, 882 548 M882 32 C882 175.87, 882 319.73, 882 548 M882 548 C882 569.33, 871.33 580, 850 580 M882 548 C882 569.33, 871.33 580, 850 580 M850 580 C643.51 580, 437.02 580, 32 580 M850 580 C628.22 580, 406.44 580, 32 580 M32 580 C10.67 580, 0 569.33, 0 548 M32 580 C10.67 580, 0 569.33, 0 548 M0 548 C0 377.11, 0 206.23, 0 32 M0 548 C0 413.71, 0 279.41, 0 32 M0 32 C0 10.67, 10.67 0, 32 0 M0 32 C0 10.67, 10.67 0, 32 0" stroke="#1e1e1e" stroke-width="2" fill="none"></path></g><g transform="translate(768.8475008674689 515.919565169268) rotate(0 377.2919774658677 137.93951411194405)"><text x="377.2919774658677" y="21.481780331033434" font-family="Virgil, Segoe UI Emoji" font-size="24.522580286567848px" fill="#1e1e1e" text-anchor="middle" style="white-space: pre;" direction="ltr" dominant-baseline="alphabetic">Angular je vývojová platforma postavená </text><text x="377.2919774658677" y="52.13500568924324" font-family="Virgil, Segoe UI Emoji" font-size="24.522580286567848px" fill="#1e1e1e" text-anchor="middle" style="white-space: pre;" direction="ltr" dominant-baseline="alphabetic">na TypeScriptu, která zahrnuje:</text><text x="377.2919774658677" y="82.78823104745305" font-family="Virgil, Segoe UI Emoji" font-size="24.522580286567848px" fill="#1e1e1e" text-anchor="middle" style="white-space: pre;" direction="ltr" dominant-baseline="alphabetic"></text><text x="377.2919774658677" y="113.44145640566286" font-family="Virgil, Segoe UI Emoji" font-size="24.522580286567848px" fill="#1e1e1e" text-anchor="middle" style="white-space: pre;" direction="ltr" dominant-baseline="alphabetic">Rámec založený na komponentách pro vytváření škálovatelných </text><text x="377.2919774658677" y="144.09468176387267" font-family="Virgil, Segoe UI Emoji" font-size="24.522580286567848px" fill="#1e1e1e" text-anchor="middle" style="white-space: pre;" direction="ltr" dominant-baseline="alphabetic">webových aplikací Sbírku dobře integrovaných knihoven, </text><text x="377.2919774658677" y="174.74790712208247" font-family="Virgil, Segoe UI Emoji" font-size="24.522580286567848px" fill="#1e1e1e" text-anchor="middle" style="white-space: pre;" direction="ltr" dominant-baseline="alphabetic">které pokrývají širokou škálu funkcí, včetně směrování, </text><text x="377.2919774658677" y="205.4011324802923" font-family="Virgil, Segoe UI Emoji" font-size="24.522580286567848px" fill="#1e1e1e" text-anchor="middle" style="white-space: pre;" direction="ltr" dominant-baseline="alphabetic">správy formulářů, komunikace klient-server a dalších</text><text x="377.2919774658677" y="236.0543578385021" font-family="Virgil, Segoe UI Emoji" font-size="24.522580286567848px" fill="#1e1e1e" text-anchor="middle" style="white-space: pre;" direction="ltr" dominant-baseline="alphabetic">Sadu nástrojů pro vývojáře, které vám pomohou vyvíjet, </text><text x="377.2919774658677" y="266.7075831967119" font-family="Virgil, Segoe UI Emoji" font-size="24.522580286567848px" fill="#1e1e1e" text-anchor="middle" style="white-space: pre;" direction="ltr" dominant-baseline="alphabetic">sestavovat, testovat a aktualizovat váš kód</text></g><g transform="translate(1018.501515992028 371.542306967654) rotate(0 127.6379623413086 22.5)"><text x="127.6379623413086" y="31.536" font-family="Virgil, Segoe UI Emoji" font-size="36px" fill="#1e1e1e" text-anchor="middle" style="white-space: pre;" direction="ltr" dominant-baseline="alphabetic">Co je Angular?</text></g><g stroke-linecap="round"><g transform="translate(1005.4299848928654 410.0423069676542) rotate(0 141.00000000000006 0)"><path d="M0 0 C47 0, 235 0, 282 0 M0 0 C47 0, 235 0, 282 0" stroke="#1e1e1e" stroke-width="2" fill="none"></path></g></g><mask></mask><g stroke-linecap="round"><g transform="translate(690.724269833845 622.6790891011494) rotate(0 -145.3977845475839 276.87628947151273)"><path d="M0 0 C-43.98 11.27, -216.49 -24.7, -263.88 67.59 C-311.27 159.89, -280.93 472.73, -284.34 553.75 M0 0 C-43.98 11.27, -216.49 -24.7, -263.88 67.59 C-311.27 159.89, -280.93 472.73, -284.34 553.75" stroke="#1e1e1e" stroke-width="2" fill="none"></path></g><g transform="translate(690.724269833845 622.6790891011494) rotate(0 -145.3977845475839 276.87628947151273)"><path d="M-293.47 530.48 C-291.22 536.21, -288.97 541.95, -284.34 553.75 M-293.47 530.48 C-291.57 535.33, -289.67 540.18, -284.34 553.75" stroke="#1e1e1e" stroke-width="2" fill="none"></path></g><g transform="translate(690.724269833845 622.6790891011494) rotate(0 -145.3977845475839 276.87628947151273)"><path d="M-276.37 530.06 C-278.34 535.89, -280.3 541.73, -284.34 553.75 M-276.37 530.06 C-278.03 535, -279.7 539.93, -284.34 553.75" stroke="#1e1e1e" stroke-width="2" fill="none"></path></g></g><mask></mask><g stroke-linecap="round" transform="translate(10 1179.6650270376917) rotate(0 441.0000000000001 290.00000000000006)"><path d="M32 0 C329.76 0, 627.52 0, 850 0 M32 0 C203.54 0, 375.07 0, 850 0 M850 0 C871.33 0, 882 10.67, 882 32 M850 0 C871.33 0, 882 10.67, 882 32 M882 32 C882 186.82, 882 341.63, 882 548 M882 32 C882 200.83, 882 369.66, 882 548 M882 548 C882 569.33, 871.33 580, 850 580 M882 548 C882 569.33, 871.33 580, 850 580 M850 580 C622.38 580, 394.76 580, 32 580 M850 580 C610.78 580, 371.56 580, 32 580 M32 580 C10.67 580, 0 569.33, 0 548 M32 580 C10.67 580, 0 569.33, 0 548 M0 548 C0 372, 0 196.01, 0 32 M0 548 C0 416.22, 0 284.44, 0 32 M0 32 C0 10.67, 10.67 0, 32 0 M0 32 C0 10.67, 10.67 0, 32 0" stroke="#1e1e1e" stroke-width="2" fill="none"></path></g><g transform="translate(144.64159902414963 1219.1650270376913) rotate(0 311.9578857421875 22.5)"><text x="311.9578857421875" y="31.536" font-family="Virgil, Segoe UI Emoji" font-size="36px" fill="#1e1e1e" text-anchor="middle" style="white-space: pre;" direction="ltr" dominant-baseline="alphabetic">Z čeho se skládá Angular aplikace?</text></g><g stroke-linecap="round"><g transform="translate(123.28202444887688 1257.6650270376917) rotate(0 333.57142857142867 0)"><path d="M0 0 C111.19 0, 555.95 0, 667.14 0 M0 0 C111.19 0, 555.95 0, 667.14 0" stroke="#1e1e1e" stroke-width="2" fill="none"></path></g></g><mask></mask><g stroke-linecap="round" transform="translate(371.85345302030544 1306.0006334763048) rotate(0 82.14285714285711 28.571428571428555)"><path d="M14.29 0 C50.36 0, 86.44 0, 150 0 M14.29 0 C47.75 0, 81.22 0, 150 0 M150 0 C159.52 0, 164.29 4.76, 164.29 14.29 M150 0 C159.52 0, 164.29 4.76, 164.29 14.29 M164.29 14.29 C164.29 20.62, 164.29 26.96, 164.29 42.86 M164.29 14.29 C164.29 20.42, 164.29 26.56, 164.29 42.86 M164.29 42.86 C164.29 52.38, 159.52 57.14, 150 57.14 M164.29 42.86 C164.29 52.38, 159.52 57.14, 150 57.14 M150 57.14 C108.77 57.14, 67.55 57.14, 14.29 57.14 M150 57.14 C97.21 57.14, 44.42 57.14, 14.29 57.14 M14.29 57.14 C4.76 57.14, 0 52.38, 0 42.86 M14.29 57.14 C4.76 57.14, 0 52.38, 0 42.86 M0 42.86 C0 36.16, 0 29.46, 0 14.29 M0 42.86 C0 35.5, 0 28.14, 0 14.29 M0 14.29 C0 4.76, 4.76 0, 14.29 0 M0 14.29 C0 4.76, 4.76 0, 14.29 0" stroke="#1e1e1e" stroke-width="2" fill="none"></path></g><g transform="translate(380.3003491646274 1324.5720620477332) rotate(0 73.69596099853516 10)"><text x="73.69596099853516" y="14.016" font-family="Virgil, Segoe UI Emoji" font-size="16px" fill="#1e1e1e" text-anchor="middle" style="white-space: pre;" direction="ltr" dominant-baseline="alphabetic">Aplikace / knihovna</text></g><g stroke-linecap="round" transform="translate(65.54598332807791 1417.517941398664) rotate(0 82.14285714285711 28.571428571428555)"><path d="M14.29 0 C43.96 0, 73.64 0, 150 0 C159.52 0, 164.29 4.76, 164.29 14.29 C164.29 23.67, 164.29 33.06, 164.29 42.86 C164.29 52.38, 159.52 57.14, 150 57.14 C98.65 57.14, 47.29 57.14, 14.29 57.14 C4.76 57.14, 0 52.38, 0 42.86 C0 35.52, 0 28.18, 0 14.29 C0 4.76, 4.76 0, 14.29 0" stroke="none" stroke-width="0" fill="#dd7755"></path><path d="M14.29 0 C46.2 0, 78.12 0, 150 0 M14.29 0 C49.22 0, 84.16 0, 150 0 M150 0 C159.52 0, 164.29 4.76, 164.29 14.29 M150 0 C159.52 0, 164.29 4.76, 164.29 14.29 M164.29 14.29 C164.29 22.46, 164.29 30.64, 164.29 42.86 M164.29 14.29 C164.29 23.5, 164.29 32.72, 164.29 42.86 M164.29 42.86 C164.29 52.38, 159.52 57.14, 150 57.14 M164.29 42.86 C164.29 52.38, 159.52 57.14, 150 57.14 M150 57.14 C121.53 57.14, 93.06 57.14, 14.29 57.14 M150 57.14 C116 57.14, 82 57.14, 14.29 57.14 M14.29 57.14 C4.76 57.14, 0 52.38, 0 42.86 M14.29 57.14 C4.76 57.14, 0 52.38, 0 42.86 M0 42.86 C0 35.83, 0 28.8, 0 14.29 M0 42.86 C0 32.07, 0 21.28, 0 14.29 M0 14.29 C0 4.76, 4.76 0, 14.29 0 M0 14.29 C0 4.76, 4.76 0, 14.29 0" stroke="#1e1e1e" stroke-width="2" fill="none"></path></g><g transform="translate(104.79285963597408 1436.0893699700925) rotate(0 42.89598083496094 10)"><text x="42.89598083496094" y="14.016" font-family="Virgil, Segoe UI Emoji" font-size="16px" fill="#1e1e1e" text-anchor="middle" style="white-space: pre;" direction="ltr" dominant-baseline="alphabetic">Komponenty</text></g><g stroke-linecap="round" transform="translate(276.81271022189094 1417.517941398664) rotate(0 82.14285714285711 28.571428571428555)"><path d="M14.29 0 C46.63 0, 78.96 0, 150 0 C159.52 0, 164.29 4.76, 164.29 14.29 C164.29 23.3, 164.29 32.31, 164.29 42.86 C164.29 52.38, 159.52 57.14, 150 57.14 C110.08 57.14, 70.15 57.14, 14.29 57.14 C4.76 57.14, 0 52.38, 0 42.86 C0 35.23, 0 27.6, 0 14.29 C0 4.76, 4.76 0, 14.29 0" stroke="none" stroke-width="0" fill="#b2f2bb"></path><path d="M14.29 0 C45.27 0, 76.26 0, 150 0 M14.29 0 C52.41 0, 90.53 0, 150 0 M150 0 C159.52 0, 164.29 4.76, 164.29 14.29 M150 0 C159.52 0, 164.29 4.76, 164.29 14.29 M164.29 14.29 C164.29 22.76, 164.29 31.23, 164.29 42.86 M164.29 14.29 C164.29 24.05, 164.29 33.81, 164.29 42.86 M164.29 42.86 C164.29 52.38, 159.52 57.14, 150 57.14 M164.29 42.86 C164.29 52.38, 159.52 57.14, 150 57.14 M150 57.14 C101.48 57.14, 52.96 57.14, 14.29 57.14 M150 57.14 C109.66 57.14, 69.32 57.14, 14.29 57.14 M14.29 57.14 C4.76 57.14, 0 52.38, 0 42.86 M14.29 57.14 C4.76 57.14, 0 52.38, 0 42.86 M0 42.86 C0 36.39, 0 29.93, 0 14.29 M0 42.86 C0 36.69, 0 30.52, 0 14.29 M0 14.29 C0 4.76, 4.76 0, 14.29 0 M0 14.29 C0 4.76, 4.76 0, 14.29 0" stroke="#1e1e1e" stroke-width="2" fill="none"></path></g><g transform="translate(330.66758060937684 1436.0893699700925) rotate(0 28.287986755371094 10)"><text x="28.287986755371094" y="14.016" font-family="Virgil, Segoe UI Emoji" font-size="16px" fill="#1e1e1e" text-anchor="middle" style="white-space: pre;" direction="ltr" dominant-baseline="alphabetic">Šablony</text></g><g stroke-linecap="round" transform="translate(473.23041655909753 1417.517941398664) rotate(0 82.14285714285711 28.571428571428555)"><path d="M14.29 0 C50.22 0, 86.15 0, 150 0 C159.52 0, 164.29 4.76, 164.29 14.29 C164.29 25.12, 164.29 35.95, 164.29 42.86 C164.29 52.38, 159.52 57.14, 150 57.14 C117.38 57.14, 84.75 57.14, 14.29 57.14 C4.76 57.14, 0 52.38, 0 42.86 C0 36.01, 0 29.17, 0 14.29 C0 4.76, 4.76 0, 14.29 0" stroke="none" stroke-width="0" fill="#a5d8ff"></path><path d="M14.29 0 C58.03 0, 101.78 0, 150 0 M14.29 0 C65.48 0, 116.68 0, 150 0 M150 0 C159.52 0, 164.29 4.76, 164.29 14.29 M150 0 C159.52 0, 164.29 4.76, 164.29 14.29 M164.29 14.29 C164.29 21.62, 164.29 28.95, 164.29 42.86 M164.29 14.29 C164.29 20.28, 164.29 26.27, 164.29 42.86 M164.29 42.86 C164.29 52.38, 159.52 57.14, 150 57.14 M164.29 42.86 C164.29 52.38, 159.52 57.14, 150 57.14 M150 57.14 C101.11 57.14, 52.22 57.14, 14.29 57.14 M150 57.14 C110.28 57.14, 70.57 57.14, 14.29 57.14 M14.29 57.14 C4.76 57.14, 0 52.38, 0 42.86 M14.29 57.14 C4.76 57.14, 0 52.38, 0 42.86 M0 42.86 C0 34.95, 0 27.03, 0 14.29 M0 42.86 C0 35.54, 0 28.23, 0 14.29 M0 14.29 C0 4.76, 4.76 0, 14.29 0 M0 14.29 C0 4.76, 4.76 0, 14.29 0" stroke="#1e1e1e" stroke-width="2" fill="none"></path></g><g transform="translate(521.4612940266617 1436.0893699700925) rotate(0 33.91197967529297 10)"><text x="33.91197967529297" y="14.016" font-family="Virgil, Segoe UI Emoji" font-size="16px" fill="#1e1e1e" text-anchor="middle" style="white-space: pre;" direction="ltr" dominant-baseline="alphabetic">Direktivy</text></g><g stroke-linecap="round" transform="translate(669.6896834966592 1417.517941398664) rotate(0 82.14285714285711 28.571428571428555)"><path d="M14.29 0 C67.42 0, 120.56 0, 150 0 C159.52 0, 164.29 4.76, 164.29 14.29 C164.29 24.23, 164.29 34.17, 164.29 42.86 C164.29 52.38, 159.52 57.14, 150 57.14 C100.42 57.14, 50.85 57.14, 14.29 57.14 C4.76 57.14, 0 52.38, 0 42.86 C0 33.78, 0 24.71, 0 14.29 C0 4.76, 4.76 0, 14.29 0" stroke="none" stroke-width="0" fill="#d0bfff"></path><path d="M14.29 0 C47.79 0, 81.29 0, 150 0 M14.29 0 C63.01 0, 111.74 0, 150 0 M150 0 C159.52 0, 164.29 4.76, 164.29 14.29 M150 0 C159.52 0, 164.29 4.76, 164.29 14.29 M164.29 14.29 C164.29 20.72, 164.29 27.15, 164.29 42.86 M164.29 14.29 C164.29 21.19, 164.29 28.1, 164.29 42.86 M164.29 42.86 C164.29 52.38, 159.52 57.14, 150 57.14 M164.29 42.86 C164.29 52.38, 159.52 57.14, 150 57.14 M150 57.14 C97.33 57.14, 44.66 57.14, 14.29 57.14 M150 57.14 C96.63 57.14, 43.25 57.14, 14.29 57.14 M14.29 57.14 C4.76 57.14, 0 52.38, 0 42.86 M14.29 57.14 C4.76 57.14, 0 52.38, 0 42.86 M0 42.86 C0 34.71, 0 26.57, 0 14.29 M0 42.86 C0 32.1, 0 21.34, 0 14.29 M0 14.29 C0 4.76, 4.76 0, 14.29 0 M0 14.29 C0 4.76, 4.76 0, 14.29 0" stroke="#1e1e1e" stroke-width="2" fill="none"></path></g><g transform="translate(727.9285565696921 1436.0893699700925) rotate(0 23.90398406982422 10)"><text x="23.90398406982422" y="14.016" font-family="Virgil, Segoe UI Emoji" font-size="16px" fill="#1e1e1e" text-anchor="middle" style="white-space: pre;" direction="ltr" dominant-baseline="alphabetic">Služby</text></g><g stroke-linecap="round"><g transform="translate(370.8067489804274 1334.982597799104) rotate(0 -104.15927368371018 40.40961788398124)"><path d="M0 0 C-28.33 2.9, -135.28 3.95, -170 17.42 C-204.72 30.89, -201.93 70.25, -208.32 80.82 M0 0 C-28.33 2.9, -135.28 3.95, -170 17.42 C-204.72 30.89, -201.93 70.25, -208.32 80.82" stroke="#1e1e1e" stroke-width="2" fill="none"></path></g><g transform="translate(370.8067489804274 1334.982597799104) rotate(0 -104.15927368371018 40.40961788398124)"><path d="M-210.06 55.88 C-209.7 61.05, -209.34 66.23, -208.32 80.82 M-210.06 55.88 C-209.39 65.58, -208.71 75.27, -208.32 80.82" stroke="#1e1e1e" stroke-width="2" fill="none"></path></g><g transform="translate(370.8067489804274 1334.982597799104) rotate(0 -104.15927368371018 40.40961788398124)"><path d="M-193.63 60.59 C-196.67 64.79, -199.72 68.98, -208.32 80.82 M-193.63 60.59 C-199.34 68.46, -205.05 76.32, -208.32 80.82" stroke="#1e1e1e" stroke-width="2" fill="none"></path></g></g><mask></mask><g stroke-linecap="round"><g transform="translate(399.70345315017005 1366.3926606341997) rotate(0 -17.134828395425757 25.23681976966337)"><path d="M0 0 C-1.95 3.38, -6.01 11.89, -11.72 20.3 C-17.43 28.72, -30.51 45.45, -34.27 50.47 M0 0 C-1.95 3.38, -6.01 11.89, -11.72 20.3 C-17.43 28.72, -30.51 45.45, -34.27 50.47" stroke="#1e1e1e" stroke-width="2" fill="none"></path></g><g transform="translate(399.70345315017005 1366.3926606341997) rotate(0 -17.134828395425757 25.23681976966337)"><path d="M-28.66 32.5 C-30.61 38.75, -32.56 45, -34.27 50.47 M-28.66 32.5 C-30.27 37.65, -31.88 42.8, -34.27 50.47" stroke="#1e1e1e" stroke-width="2" fill="none"></path></g><g transform="translate(399.70345315017005 1366.3926606341997) rotate(0 -17.134828395425757 25.23681976966337)"><path d="M-18.42 40.31 C-23.93 43.84, -29.44 47.38, -34.27 50.47 M-18.42 40.31 C-22.96 43.22, -27.51 46.14, -34.27 50.47" stroke="#1e1e1e" stroke-width="2" fill="none"></path></g></g><mask></mask><g stroke-linecap="round"><g transform="translate(496.40630749786635 1369.209843494644) rotate(0 31.94716198070097 23.25509524837294)"><path d="M0 0 C4.33 2.5, 15.34 7.25, 25.99 15.01 C36.64 22.76, 57.58 41.26, 63.89 46.51 M0 0 C4.33 2.5, 15.34 7.25, 25.99 15.01 C36.64 22.76, 57.58 41.26, 63.89 46.51" stroke="#1e1e1e" stroke-width="2" fill="none"></path></g><g transform="translate(496.40630749786635 1369.209843494644) rotate(0 31.94716198070097 23.25509524837294)"><path d="M40.81 37.88 C49.86 41.26, 58.91 44.64, 63.89 46.51 M40.81 37.88 C47.16 40.25, 53.51 42.63, 63.89 46.51" stroke="#1e1e1e" stroke-width="2" fill="none"></path></g><g transform="translate(496.40630749786635 1369.209843494644) rotate(0 31.94716198070097 23.25509524837294)"><path d="M51.76 25.06 C56.52 33.47, 61.27 41.87, 63.89 46.51 M51.76 25.06 C55.1 30.96, 58.44 36.86, 63.89 46.51" stroke="#1e1e1e" stroke-width="2" fill="none"></path></g></g><mask></mask><g stroke-linecap="round"><g transform="translate(538.7156784638669 1329.4088574013135) rotate(0 109.23318033118977 43.87024912098096)"><path d="M0 0 C30.66 3.02, 147.52 3.49, 183.93 18.11 C220.34 32.74, 212.71 76.14, 218.47 87.74 M0 0 C30.66 3.02, 147.52 3.49, 183.93 18.11 C220.34 32.74, 212.71 76.14, 218.47 87.74" stroke="#1e1e1e" stroke-width="2" fill="none"></path></g><g transform="translate(538.7156784638669 1329.4088574013135) rotate(0 109.23318033118977 43.87024912098096)"><path d="M205.91 66.12 C209.21 71.8, 212.51 77.48, 218.47 87.74 M205.91 66.12 C210.11 73.36, 214.31 80.59, 218.47 87.74" stroke="#1e1e1e" stroke-width="2" fill="none"></path></g><g transform="translate(538.7156784638669 1329.4088574013135) rotate(0 109.23318033118977 43.87024912098096)"><path d="M222.74 63.11 C221.62 69.58, 220.5 76.05, 218.47 87.74 M222.74 63.11 C221.31 71.35, 219.88 79.6, 218.47 87.74" stroke="#1e1e1e" stroke-width="2" fill="none"></path></g></g><mask></mask><g transform="translate(49.37932356419674 1524.5454448305734) rotate(0 98.30951690673828 82.40658791385985)"><text x="98.30951690673828" y="11.5501073620066" font-family="Virgil, Segoe UI Emoji" font-size="13.185054066217576px" fill="#e8590c" text-anchor="middle" style="white-space: pre;" direction="ltr" dominant-baseline="alphabetic">Komponenty jsou základní </text><text x="98.30951690673828" y="28.03142494477857" font-family="Virgil, Segoe UI Emoji" font-size="13.185054066217576px" fill="#e8590c" text-anchor="middle" style="white-space: pre;" direction="ltr" dominant-baseline="alphabetic">stavební kameny pro </text><text x="98.30951690673828" y="44.51274252755054" font-family="Virgil, Segoe UI Emoji" font-size="13.185054066217576px" fill="#e8590c" text-anchor="middle" style="white-space: pre;" direction="ltr" dominant-baseline="alphabetic">vytváření aplikací v Angularu.</text><text x="98.30951690673828" y="60.994060110322515" font-family="Virgil, Segoe UI Emoji" font-size="13.185054066217576px" fill="#e8590c" text-anchor="middle" style="white-space: pre;" direction="ltr" dominant-baseline="alphabetic"></text><text x="98.30951690673828" y="77.47537769309449" font-family="Virgil, Segoe UI Emoji" font-size="13.185054066217576px" fill="#e8590c" text-anchor="middle" style="white-space: pre;" direction="ltr" dominant-baseline="alphabetic">Využitím architektury </text><text x="98.30951690673828" y="93.95669527586645" font-family="Virgil, Segoe UI Emoji" font-size="13.185054066217576px" fill="#e8590c" text-anchor="middle" style="white-space: pre;" direction="ltr" dominant-baseline="alphabetic">komponent se Angular </text><text x="98.30951690673828" y="110.43801285863843" font-family="Virgil, Segoe UI Emoji" font-size="13.185054066217576px" fill="#e8590c" text-anchor="middle" style="white-space: pre;" direction="ltr" dominant-baseline="alphabetic">snaží poskytnout strukturu </text><text x="98.30951690673828" y="126.91933044141041" font-family="Virgil, Segoe UI Emoji" font-size="13.185054066217576px" fill="#e8590c" text-anchor="middle" style="white-space: pre;" direction="ltr" dominant-baseline="alphabetic">pro organizaci vašeho </text><text x="98.30951690673828" y="143.40064802418237" font-family="Virgil, Segoe UI Emoji" font-size="13.185054066217576px" fill="#e8590c" text-anchor="middle" style="white-space: pre;" direction="ltr" dominant-baseline="alphabetic">projektu spravovatelných</text><text x="98.30951690673828" y="159.88196560695434" font-family="Virgil, Segoe UI Emoji" font-size="13.185054066217576px" fill="#e8590c" text-anchor="middle" style="white-space: pre;" direction="ltr" dominant-baseline="alphabetic">částí s jasnými odpovědnostmi.</text></g><g transform="translate(268.9192895937517 1512.7400375900265) rotate(0 90.0362777709961 94.2119951544066)"><text x="90.0362777709961" y="11.003961034034692" font-family="Virgil, Segoe UI Emoji" font-size="12.56159935392088px" fill="#2f9e44" text-anchor="middle" style="white-space: pre;" direction="ltr" dominant-baseline="alphabetic">Každá komponenta má </text><text x="90.0362777709961" y="26.705960226435792" font-family="Virgil, Segoe UI Emoji" font-size="12.56159935392088px" fill="#2f9e44" text-anchor="middle" style="white-space: pre;" direction="ltr" dominant-baseline="alphabetic">HTML šablonu, která určuje, </text><text x="90.0362777709961" y="42.407959418836896" font-family="Virgil, Segoe UI Emoji" font-size="12.56159935392088px" fill="#2f9e44" text-anchor="middle" style="white-space: pre;" direction="ltr" dominant-baseline="alphabetic">co tato komponenta </text><text x="90.0362777709961" y="58.109958611237985" font-family="Virgil, Segoe UI Emoji" font-size="12.56159935392088px" fill="#2f9e44" text-anchor="middle" style="white-space: pre;" direction="ltr" dominant-baseline="alphabetic">vykresluje do DOMu.</text><text x="90.0362777709961" y="73.81195780363909" font-family="Virgil, Segoe UI Emoji" font-size="12.56159935392088px" fill="#2f9e44" text-anchor="middle" style="white-space: pre;" direction="ltr" dominant-baseline="alphabetic"></text><text x="90.0362777709961" y="89.51395699604019" font-family="Virgil, Segoe UI Emoji" font-size="12.56159935392088px" fill="#2f9e44" text-anchor="middle" style="white-space: pre;" direction="ltr" dominant-baseline="alphabetic">Šablony mohou být</text><text x="90.0362777709961" y="105.21595618844128" font-family="Virgil, Segoe UI Emoji" font-size="12.56159935392088px" fill="#2f9e44" text-anchor="middle" style="white-space: pre;" direction="ltr" dominant-baseline="alphabetic">napojeny na data,</text><text x="90.0362777709961" y="120.91795538084239" font-family="Virgil, Segoe UI Emoji" font-size="12.56159935392088px" fill="#2f9e44" text-anchor="middle" style="white-space: pre;" direction="ltr" dominant-baseline="alphabetic">která jsou řízena TS kódem.</text><text x="90.0362777709961" y="136.6199545732435" font-family="Virgil, Segoe UI Emoji" font-size="12.56159935392088px" fill="#2f9e44" text-anchor="middle" style="white-space: pre;" direction="ltr" dominant-baseline="alphabetic"></text><text x="90.0362777709961" y="152.3219537656446" font-family="Virgil, Segoe UI Emoji" font-size="12.56159935392088px" fill="#2f9e44" text-anchor="middle" style="white-space: pre;" direction="ltr" dominant-baseline="alphabetic">Angular se postará o</text><text x="90.0362777709961" y="168.0239529580457" font-family="Virgil, Segoe UI Emoji" font-size="12.56159935392088px" fill="#2f9e44" text-anchor="middle" style="white-space: pre;" direction="ltr" dominant-baseline="alphabetic">update DOMu při změně</text><text x="90.0362777709961" y="183.7259521504468" font-family="Virgil, Segoe UI Emoji" font-size="12.56159935392088px" fill="#2f9e44" text-anchor="middle" style="white-space: pre;" direction="ltr" dominant-baseline="alphabetic">těchto dat.</text></g><g transform="translate(479.3687647297867 1546.973244638818) rotate(0 76.00450897216797 59.97878810561523)"><text x="76.00450897216797" y="10.50828367610379" font-family="Virgil, Segoe UI Emoji" font-size="11.995757621123047px" fill="#1971c2" text-anchor="middle" style="white-space: pre;" direction="ltr" dominant-baseline="alphabetic">Při vytváření aplikací </text><text x="76.00450897216797" y="25.5029807025076" font-family="Virgil, Segoe UI Emoji" font-size="11.995757621123047px" fill="#1971c2" text-anchor="middle" style="white-space: pre;" direction="ltr" dominant-baseline="alphabetic">existuje potřeba </text><text x="76.00450897216797" y="40.49767772891141" font-family="Virgil, Segoe UI Emoji" font-size="11.995757621123047px" fill="#1971c2" text-anchor="middle" style="white-space: pre;" direction="ltr" dominant-baseline="alphabetic">rozšířit chování HTML </text><text x="76.00450897216797" y="55.49237475531521" font-family="Virgil, Segoe UI Emoji" font-size="11.995757621123047px" fill="#1971c2" text-anchor="middle" style="white-space: pre;" direction="ltr" dominant-baseline="alphabetic">prvku nebo komponent. </text><text x="76.00450897216797" y="70.48707178171902" font-family="Virgil, Segoe UI Emoji" font-size="11.995757621123047px" fill="#1971c2" text-anchor="middle" style="white-space: pre;" direction="ltr" dominant-baseline="alphabetic"></text><text x="76.00450897216797" y="85.48176880812284" font-family="Virgil, Segoe UI Emoji" font-size="11.995757621123047px" fill="#1971c2" text-anchor="middle" style="white-space: pre;" direction="ltr" dominant-baseline="alphabetic">Direktivy umožňují takové</text><text x="76.00450897216797" y="100.47646583452664" font-family="Virgil, Segoe UI Emoji" font-size="11.995757621123047px" fill="#1971c2" text-anchor="middle" style="white-space: pre;" direction="ltr" dominant-baseline="alphabetic">rozšíření napojit na</text><text x="76.00450897216797" y="115.47116286093045" font-family="Virgil, Segoe UI Emoji" font-size="11.995757621123047px" fill="#1971c2" text-anchor="middle" style="white-space: pre;" direction="ltr" dominant-baseline="alphabetic">existující prvky v aplikaci.</text></g><g transform="translate(682.6323376976218 1554.4337399810115) rotate(0 69.20020294189453 52.51829276342178)"><text x="69.20020294189453" y="9.201204892151496" font-family="Virgil, Segoe UI Emoji" font-size="10.503658552684357px" fill="#6741d9" text-anchor="middle" style="white-space: pre;" direction="ltr" dominant-baseline="alphabetic">Služby řeší potřebu sdílení</text><text x="69.20020294189453" y="22.33077808300694" font-family="Virgil, Segoe UI Emoji" font-size="10.503658552684357px" fill="#6741d9" text-anchor="middle" style="white-space: pre;" direction="ltr" dominant-baseline="alphabetic">dat a programové logiky</text><text x="69.20020294189453" y="35.460351273862386" font-family="Virgil, Segoe UI Emoji" font-size="10.503658552684357px" fill="#6741d9" text-anchor="middle" style="white-space: pre;" direction="ltr" dominant-baseline="alphabetic">mezi komponentami.</text><text x="69.20020294189453" y="48.58992446471783" font-family="Virgil, Segoe UI Emoji" font-size="10.503658552684357px" fill="#6741d9" text-anchor="middle" style="white-space: pre;" direction="ltr" dominant-baseline="alphabetic"></text><text x="69.20020294189453" y="61.71949765557328" font-family="Virgil, Segoe UI Emoji" font-size="10.503658552684357px" fill="#6741d9" text-anchor="middle" style="white-space: pre;" direction="ltr" dominant-baseline="alphabetic">Je možné je "injektovat"</text><text x="69.20020294189453" y="74.84907084642872" font-family="Virgil, Segoe UI Emoji" font-size="10.503658552684357px" fill="#6741d9" text-anchor="middle" style="white-space: pre;" direction="ltr" dominant-baseline="alphabetic">do komponent a direktiv,</text><text x="69.20020294189453" y="87.97864403728417" font-family="Virgil, Segoe UI Emoji" font-size="10.503658552684357px" fill="#6741d9" text-anchor="middle" style="white-space: pre;" direction="ltr" dominant-baseline="alphabetic">či stavět hierarchie služeb</text><text x="69.20020294189453" y="101.10821722813962" font-family="Virgil, Segoe UI Emoji" font-size="10.503658552684357px" fill="#6741d9" text-anchor="middle" style="white-space: pre;" direction="ltr" dominant-baseline="alphabetic">jejich kompozicí.</text></g><g stroke-linecap="round" transform="translate(1363.1436813766213 1171.1734906206048) rotate(0 443.1110686224929 298.3101663065974)"><path d="M32 0 C241.93 0, 451.86 0, 854.22 0 M32 0 C353.5 0, 675 0, 854.22 0 M854.22 0 C875.56 0, 886.22 10.67, 886.22 32 M854.22 0 C875.56 0, 886.22 10.67, 886.22 32 M886.22 32 C886.22 175.45, 886.22 318.89, 886.22 564.62 M886.22 32 C886.22 173.75, 886.22 315.5, 886.22 564.62 M886.22 564.62 C886.22 585.95, 875.56 596.62, 854.22 596.62 M886.22 564.62 C886.22 585.95, 875.56 596.62, 854.22 596.62 M854.22 596.62 C558.72 596.62, 263.22 596.62, 32 596.62 M854.22 596.62 C684.04 596.62, 513.85 596.62, 32 596.62 M32 596.62 C10.67 596.62, 0 585.95, 0 564.62 M32 596.62 C10.67 596.62, 0 585.95, 0 564.62 M0 564.62 C0 410.01, 0 255.39, 0 32 M0 564.62 C0 448.79, 0 332.96, 0 32 M0 32 C0 10.67, 10.67 0, 32 0 M0 32 C0 10.67, 10.67 0, 32 0" stroke="#1e1e1e" stroke-width="2" fill="none"></path></g><g transform="translate(1699.3162356029404 1219.9433626579917) rotate(0 105.1199722290039 22.5)"><text x="105.1199722290039" y="31.536" font-family="Virgil, Segoe UI Emoji" font-size="36px" fill="#1e1e1e" text-anchor="middle" style="white-space: pre;" direction="ltr" dominant-baseline="alphabetic">Angular CLI</text></g><g stroke-linecap="round"><g transform="translate(1672.5021498594251 1255.649985426539) rotate(0 128.40435662098037 0)"><path d="M0 0 C42.8 0, 214.01 0, 256.81 0 M0 0 C42.8 0, 214.01 0, 256.81 0" stroke="#1e1e1e" stroke-width="2" fill="none"></path></g></g><mask></mask><g stroke-linecap="round" transform="translate(1405.4334737019335 1406.454227061482) rotate(0 89.71842866465931 32.92419400537955)"><path d="M16.46 0 C49.72 0, 82.97 0, 162.97 0 M16.46 0 C52.88 0, 89.29 0, 162.97 0 M162.97 0 C173.95 0, 179.44 5.49, 179.44 16.46 M162.97 0 C173.95 0, 179.44 5.49, 179.44 16.46 M179.44 16.46 C179.44 29.63, 179.44 42.79, 179.44 49.39 M179.44 16.46 C179.44 27.56, 179.44 38.67, 179.44 49.39 M179.44 49.39 C179.44 60.36, 173.95 65.85, 162.97 65.85 M179.44 49.39 C179.44 60.36, 173.95 65.85, 162.97 65.85 M162.97 65.85 C116.28 65.85, 69.59 65.85, 16.46 65.85 M162.97 65.85 C110.53 65.85, 58.09 65.85, 16.46 65.85 M16.46 65.85 C5.49 65.85, 0 60.36, 0 49.39 M16.46 65.85 C5.49 65.85, 0 60.36, 0 49.39 M0 49.39 C0 36.71, 0 24.03, 0 16.46 M0 49.39 C0 39.82, 0 30.26, 0 16.46 M0 16.46 C0 5.49, 5.49 0, 16.46 0 M0 16.46 C0 5.49, 5.49 0, 16.46 0" stroke="#1e1e1e" stroke-width="2" fill="none"></path></g><g transform="translate(1433.2799464950108 1419.3784210668614) rotate(0 61.87195587158203 20)"><text x="61.87195587158203" y="14.016" font-family="Virgil, Segoe UI Emoji" font-size="16px" fill="#1e1e1e" text-anchor="middle" style="white-space: pre;" direction="ltr" dominant-baseline="alphabetic">Generování </text><text x="61.87195587158203" y="34.016" font-family="Virgil, Segoe UI Emoji" font-size="16px" fill="#1e1e1e" text-anchor="middle" style="white-space: pre;" direction="ltr" dominant-baseline="alphabetic">boilerplate kódu</text></g><g stroke-linecap="round" transform="translate(1721.0392319780556 1442.9268744248145) rotate(0 89.71842866465929 32.92419400537955)"><path d="M16.46 0 C60.65 0, 104.84 0, 162.97 0 M16.46 0 C59.79 0, 103.11 0, 162.97 0 M162.97 0 C173.95 0, 179.44 5.49, 179.44 16.46 M162.97 0 C173.95 0, 179.44 5.49, 179.44 16.46 M179.44 16.46 C179.44 27.06, 179.44 37.66, 179.44 49.39 M179.44 16.46 C179.44 27.85, 179.44 39.24, 179.44 49.39 M179.44 49.39 C179.44 60.36, 173.95 65.85, 162.97 65.85 M179.44 49.39 C179.44 60.36, 173.95 65.85, 162.97 65.85 M162.97 65.85 C104.48 65.85, 45.98 65.85, 16.46 65.85 M162.97 65.85 C122.4 65.85, 81.82 65.85, 16.46 65.85 M16.46 65.85 C5.49 65.85, 0 60.36, 0 49.39 M16.46 65.85 C5.49 65.85, 0 60.36, 0 49.39 M0 49.39 C0 36.6, 0 23.8, 0 16.46 M0 49.39 C0 39.12, 0 28.85, 0 16.46 M0 16.46 C0 5.49, 5.49 0, 16.46 0 M0 16.46 C0 5.49, 5.49 0, 16.46 0" stroke="#1e1e1e" stroke-width="2" fill="none"></path></g><g transform="translate(1726.5977103863672 1455.8510684301941) rotate(0 84.15995025634763 20)"><text x="84.15995025634766" y="14.016" font-family="Virgil, Segoe UI Emoji" font-size="16px" fill="#1e1e1e" text-anchor="middle" style="white-space: pre;" direction="ltr" dominant-baseline="alphabetic">Spuštění aplikace ve </text><text x="84.15995025634766" y="34.016" font-family="Virgil, Segoe UI Emoji" font-size="16px" fill="#1e1e1e" text-anchor="middle" style="white-space: pre;" direction="ltr" dominant-baseline="alphabetic">vývojovém módu</text></g><g stroke-linecap="round" transform="translate(2025.2780026562948 1399.8661256022478) rotate(0 89.71842866465931 32.92419400537955)"><path d="M16.46 0 C72.92 0, 129.39 0, 162.97 0 M16.46 0 C50.54 0, 84.62 0, 162.97 0 M162.97 0 C173.95 0, 179.44 5.49, 179.44 16.46 M162.97 0 C173.95 0, 179.44 5.49, 179.44 16.46 M179.44 16.46 C179.44 25.41, 179.44 34.36, 179.44 49.39 M179.44 16.46 C179.44 25.86, 179.44 35.26, 179.44 49.39 M179.44 49.39 C179.44 60.36, 173.95 65.85, 162.97 65.85 M179.44 49.39 C179.44 60.36, 173.95 65.85, 162.97 65.85 M162.97 65.85 C111.92 65.85, 60.86 65.85, 16.46 65.85 M162.97 65.85 C131.57 65.85, 100.17 65.85, 16.46 65.85 M16.46 65.85 C5.49 65.85, 0 60.36, 0 49.39 M16.46 65.85 C5.49 65.85, 0 60.36, 0 49.39 M0 49.39 C0 39.64, 0 29.9, 0 16.46 M0 49.39 C0 38.91, 0 28.43, 0 16.46 M0 16.46 C0 5.49, 5.49 0, 16.46 0 M0 16.46 C0 5.49, 5.49 0, 16.46 0" stroke="#1e1e1e" stroke-width="2" fill="none"></path></g><g transform="translate(2056.29247471695 1422.7903196076272) rotate(0 58.703956604003906 10)"><text x="58.703956604003906" y="14.016" font-family="Virgil, Segoe UI Emoji" font-size="16px" fill="#1e1e1e" text-anchor="middle" style="white-space: pre;" direction="ltr" dominant-baseline="alphabetic">Spuštění testů</text></g><g stroke-linecap="round" transform="translate(1839.173480768176 1617.2070555481835) rotate(0 89.71842866465931 32.92419400537955)"><path d="M16.46 0 C57.04 0, 97.61 0, 162.97 0 M16.46 0 C56.72 0, 96.98 0, 162.97 0 M162.97 0 C173.95 0, 179.44 5.49, 179.44 16.46 M162.97 0 C173.95 0, 179.44 5.49, 179.44 16.46 M179.44 16.46 C179.44 25.55, 179.44 34.64, 179.44 49.39 M179.44 16.46 C179.44 28.3, 179.44 40.13, 179.44 49.39 M179.44 49.39 C179.44 60.36, 173.95 65.85, 162.97 65.85 M179.44 49.39 C179.44 60.36, 173.95 65.85, 162.97 65.85 M162.97 65.85 C110.83 65.85, 58.68 65.85, 16.46 65.85 M162.97 65.85 C116.38 65.85, 69.79 65.85, 16.46 65.85 M16.46 65.85 C5.49 65.85, 0 60.36, 0 49.39 M16.46 65.85 C5.49 65.85, 0 60.36, 0 49.39 M0 49.39 C0 42.7, 0 36, 0 16.46 M0 49.39 C0 41.84, 0 34.29, 0 16.46 M0 16.46 C0 5.49, 5.49 0, 16.46 0 M0 16.46 C0 5.49, 5.49 0, 16.46 0" stroke="#1e1e1e" stroke-width="2" fill="none"></path></g><g transform="translate(1870.8279445890853 1630.131249553563) rotate(0 58.06396484375 20)"><text x="58.06396484375" y="14.016" font-family="Virgil, Segoe UI Emoji" font-size="16px" fill="#1e1e1e" text-anchor="middle" style="white-space: pre;" direction="ltr" dominant-baseline="alphabetic">Sestavení pro </text><text x="58.06396484375" y="34.016" font-family="Virgil, Segoe UI Emoji" font-size="16px" fill="#1e1e1e" text-anchor="middle" style="white-space: pre;" direction="ltr" dominant-baseline="alphabetic">produkci</text></g><g stroke-linecap="round" transform="translate(1464.0298298877653 1510.8099731128596) rotate(0 89.71842866465931 32.92419400537955)"><path d="M16.46 0 C61.27 0, 106.08 0, 162.97 0 M16.46 0 C58.76 0, 101.07 0, 162.97 0 M162.97 0 C173.95 0, 179.44 5.49, 179.44 16.46 M162.97 0 C173.95 0, 179.44 5.49, 179.44 16.46 M179.44 16.46 C179.44 24.2, 179.44 31.93, 179.44 49.39 M179.44 16.46 C179.44 27.43, 179.44 38.4, 179.44 49.39 M179.44 49.39 C179.44 60.36, 173.95 65.85, 162.97 65.85 M179.44 49.39 C179.44 60.36, 173.95 65.85, 162.97 65.85 M162.97 65.85 C105.76 65.85, 48.54 65.85, 16.46 65.85 M162.97 65.85 C114.36 65.85, 65.74 65.85, 16.46 65.85 M16.46 65.85 C5.49 65.85, 0 60.36, 0 49.39 M16.46 65.85 C5.49 65.85, 0 60.36, 0 49.39 M0 49.39 C0 42.57, 0 35.76, 0 16.46 M0 49.39 C0 40.36, 0 31.34, 0 16.46 M0 16.46 C0 5.49, 5.49 0, 16.46 0 M0 16.46 C0 5.49, 5.49 0, 16.46 0" stroke="#1e1e1e" stroke-width="2" fill="none"></path></g><g transform="translate(1482.1802882765458 1523.734167118239) rotate(0 71.5679702758789 20)"><text x="71.5679702758789" y="14.016" font-family="Virgil, Segoe UI Emoji" font-size="16px" fill="#1e1e1e" text-anchor="middle" style="white-space: pre;" direction="ltr" dominant-baseline="alphabetic">Statická analýza </text><text x="71.5679702758789" y="34.016" font-family="Virgil, Segoe UI Emoji" font-size="16px" fill="#1e1e1e" text-anchor="middle" style="white-space: pre;" direction="ltr" dominant-baseline="alphabetic">kódu</text></g><g stroke-linecap="round" transform="translate(1965.9216991489839 1503.5601000365755) rotate(0 89.71842866465931 32.92419400537955)"><path d="M16.46 0 C54.44 0, 92.42 0, 162.97 0 M16.46 0 C71.48 0, 126.5 0, 162.97 0 M162.97 0 C173.95 0, 179.44 5.49, 179.44 16.46 M162.97 0 C173.95 0, 179.44 5.49, 179.44 16.46 M179.44 16.46 C179.44 24.52, 179.44 32.58, 179.44 49.39 M179.44 16.46 C179.44 23.45, 179.44 30.44, 179.44 49.39 M179.44 49.39 C179.44 60.36, 173.95 65.85, 162.97 65.85 M179.44 49.39 C179.44 60.36, 173.95 65.85, 162.97 65.85 M162.97 65.85 C116.82 65.85, 70.67 65.85, 16.46 65.85 M162.97 65.85 C110.73 65.85, 58.49 65.85, 16.46 65.85 M16.46 65.85 C5.49 65.85, 0 60.36, 0 49.39 M16.46 65.85 C5.49 65.85, 0 60.36, 0 49.39 M0 49.39 C0 41.55, 0 33.72, 0 16.46 M0 49.39 C0 40.38, 0 31.37, 0 16.46 M0 16.46 C0 5.49, 5.49 0, 16.46 0 M0 16.46 C0 5.49, 5.49 0, 16.46 0" stroke="#1e1e1e" stroke-width="2" fill="none"></path></g><g transform="translate(1980.1441866515338 1526.484294041955) rotate(0 75.49594116210938 10)"><text x="75.49594116210938" y="14.016" font-family="Virgil, Segoe UI Emoji" font-size="16px" fill="#1e1e1e" text-anchor="middle" style="white-space: pre;" direction="ltr" dominant-baseline="alphabetic">Instalace rozšíření</text></g><g stroke-linecap="round" transform="translate(1608.1999057421974 1618.7364952132018) rotate(0 89.71842866465931 32.92419400537955)"><path d="M16.46 0 C60.68 0, 104.9 0, 162.97 0 M16.46 0 C72.67 0, 128.88 0, 162.97 0 M162.97 0 C173.95 0, 179.44 5.49, 179.44 16.46 M162.97 0 C173.95 0, 179.44 5.49, 179.44 16.46 M179.44 16.46 C179.44 26.21, 179.44 35.95, 179.44 49.39 M179.44 16.46 C179.44 28.99, 179.44 41.51, 179.44 49.39 M179.44 49.39 C179.44 60.36, 173.95 65.85, 162.97 65.85 M179.44 49.39 C179.44 60.36, 173.95 65.85, 162.97 65.85 M162.97 65.85 C121.35 65.85, 79.72 65.85, 16.46 65.85 M162.97 65.85 C109.33 65.85, 55.69 65.85, 16.46 65.85 M16.46 65.85 C5.49 65.85, 0 60.36, 0 49.39 M16.46 65.85 C5.49 65.85, 0 60.36, 0 49.39 M0 49.39 C0 37.21, 0 25.04, 0 16.46 M0 49.39 C0 41.68, 0 33.98, 0 16.46 M0 16.46 C0 5.49, 5.49 0, 16.46 0 M0 16.46 C0 5.49, 5.49 0, 16.46 0" stroke="#1e1e1e" stroke-width="2" fill="none"></path></g><g transform="translate(1621.5823740186731 1631.6606892185814) rotate(0 76.3359603881836 20)"><text x="76.3359603881836" y="14.016" font-family="Virgil, Segoe UI Emoji" font-size="16px" fill="#1e1e1e" text-anchor="middle" style="white-space: pre;" direction="ltr" dominant-baseline="alphabetic">Migrace na novější </text><text x="76.3359603881836" y="34.016" font-family="Virgil, Segoe UI Emoji" font-size="16px" fill="#1e1e1e" text-anchor="middle" style="white-space: pre;" direction="ltr" dominant-baseline="alphabetic">verze platformy</text></g><g stroke-linecap="round" transform="translate(1452.9322386111587 1284.4452525443116) rotate(0 340.4603253077619 35)"><path d="M17.5 0 C174.06 0, 330.63 0, 663.42 0 M17.5 0 C152.72 0, 287.95 0, 663.42 0 M663.42 0 C675.09 0, 680.92 5.83, 680.92 17.5 M663.42 0 C675.09 0, 680.92 5.83, 680.92 17.5 M680.92 17.5 C680.92 25.68, 680.92 33.86, 680.92 52.5 M680.92 17.5 C680.92 25.11, 680.92 32.73, 680.92 52.5 M680.92 52.5 C680.92 64.17, 675.09 70, 663.42 70 M680.92 52.5 C680.92 64.17, 675.09 70, 663.42 70 M663.42 70 C452.01 70, 240.59 70, 17.5 70 M663.42 70 C521.05 70, 378.67 70, 17.5 70 M17.5 70 C5.83 70, 0 64.17, 0 52.5 M17.5 70 C5.83 70, 0 64.17, 0 52.5 M0 52.5 C0 40.39, 0 28.27, 0 17.5 M0 52.5 C0 43.87, 0 35.24, 0 17.5 M0 17.5 C0 5.83, 5.83 0, 17.5 0 M0 17.5 C0 5.83, 5.83 0, 17.5 0" stroke="#1e1e1e" stroke-width="2" fill="none"></path></g><g transform="translate(1614.632676223608 1309.4452525443116) rotate(0 178.7598876953125 10)"><text x="178.7598876953125" y="14.016" font-family="Virgil, Segoe UI Emoji" font-size="16px" fill="#1e1e1e" text-anchor="middle" style="white-space: pre;" direction="ltr" dominant-baseline="alphabetic">Řízení vývojové částí životního cyklu aplikace</text></g><g stroke-linecap="round"><g transform="translate(1561.276979587597 1359.0222111119083) rotate(0 -28.661071216564864 21.80977494369958)"><path d="M0 0 C-8.14 2.18, -39.27 5.81, -48.82 13.08 C-58.37 20.35, -55.9 38.53, -57.32 43.62 M0 0 C-8.14 2.18, -39.27 5.81, -48.82 13.08 C-58.37 20.35, -55.9 38.53, -57.32 43.62" stroke="#1e1e1e" stroke-width="2" fill="none"></path></g><g transform="translate(1561.276979587597 1359.0222111119083) rotate(0 -28.661071216564864 21.80977494369958)"><path d="M-61.42 28.31 C-60.09 33.29, -58.75 38.28, -57.32 43.62 M-61.42 28.31 C-60.45 31.91, -59.49 35.52, -57.32 43.62" stroke="#1e1e1e" stroke-width="2" fill="none"></path></g><g transform="translate(1561.276979587597 1359.0222111119083) rotate(0 -28.661071216564864 21.80977494369958)"><path d="M-50.62 29.26 C-52.8 33.93, -54.98 38.61, -57.32 43.62 M-50.62 29.26 C-52.2 32.64, -53.78 36.02, -57.32 43.62" stroke="#1e1e1e" stroke-width="2" fill="none"></path></g></g><mask></mask><g stroke-linecap="round"><g transform="translate(1652.5949670578586 1359.5192309746058) rotate(0 -23.903684888681028 73.59552607674033)"><path d="M0 0 C-7.23 12.09, -35.6 47.99, -43.39 72.52 C-51.18 97.05, -46.18 134.75, -46.74 147.19 M0 0 C-7.23 12.09, -35.6 47.99, -43.39 72.52 C-51.18 97.05, -46.18 134.75, -46.74 147.19" stroke="#1e1e1e" stroke-width="2" fill="none"></path></g><g transform="translate(1652.5949670578586 1359.5192309746058) rotate(0 -23.903684888681028 73.59552607674033)"><path d="M-55.98 123.96 C-52.72 132.16, -49.45 140.37, -46.74 147.19 M-55.98 123.96 C-53.37 130.52, -50.77 137.07, -46.74 147.19" stroke="#1e1e1e" stroke-width="2" fill="none"></path></g><g transform="translate(1652.5949670578586 1359.5192309746058) rotate(0 -23.903684888681028 73.59552607674033)"><path d="M-38.89 123.46 C-41.66 131.84, -44.43 140.22, -46.74 147.19 M-38.89 123.46 C-41.1 130.15, -43.32 136.85, -46.74 147.19" stroke="#1e1e1e" stroke-width="2" fill="none"></path></g></g><mask></mask><g stroke-linecap="round"><g transform="translate(1701.0723712407037 1360.8427274511282) rotate(0 -14.111689481708936 127.46486969844858)"><path d="M0 0 C-4.15 21.07, -20.17 83.91, -24.88 126.4 C-29.58 168.89, -27.67 233.51, -28.22 254.93 M0 0 C-4.15 21.07, -20.17 83.91, -24.88 126.4 C-29.58 168.89, -27.67 233.51, -28.22 254.93" stroke="#1e1e1e" stroke-width="2" fill="none"></path></g><g transform="translate(1701.0723712407037 1360.8427274511282) rotate(0 -14.111689481708936 127.46486969844858)"><path d="M-36.71 231.41 C-33.89 239.24, -31.06 247.06, -28.22 254.93 M-36.71 231.41 C-33.74 239.65, -30.76 247.89, -28.22 254.93" stroke="#1e1e1e" stroke-width="2" fill="none"></path></g><g transform="translate(1701.0723712407037 1360.8427274511282) rotate(0 -14.111689481708936 127.46486969844858)"><path d="M-19.61 231.46 C-22.47 239.27, -25.34 247.07, -28.22 254.93 M-19.61 231.46 C-22.63 239.68, -25.65 247.91, -28.22 254.93" stroke="#1e1e1e" stroke-width="2" fill="none"></path></g></g><mask></mask><g stroke-linecap="round"><g transform="translate(1808.5091670633315 1358.7641339503534) rotate(0 0.9851745160681276 42.24832301875793)"><path d="M0 0 C0.33 14.08, 1.64 70.41, 1.97 84.5 M0 0 C0.33 14.08, 1.64 70.41, 1.97 84.5" stroke="#1e1e1e" stroke-width="2" fill="none"></path></g><g transform="translate(1808.5091670633315 1358.7641339503534) rotate(0 0.9851745160681276 42.24832301875793)"><path d="M-7.13 61.21 C-4.48 67.98, -1.84 74.74, 1.97 84.5 M-7.13 61.21 C-4.79 67.2, -2.45 73.18, 1.97 84.5" stroke="#1e1e1e" stroke-width="2" fill="none"></path></g><g transform="translate(1808.5091670633315 1358.7641339503534) rotate(0 0.9851745160681276 42.24832301875793)"><path d="M9.97 60.81 C7.65 67.69, 5.32 74.58, 1.97 84.5 M9.97 60.81 C7.91 66.9, 5.86 72.99, 1.97 84.5" stroke="#1e1e1e" stroke-width="2" fill="none"></path></g></g><mask></mask><g stroke-linecap="round"><g transform="translate(1940.5750260847474 1365.129807815044) rotate(0 -14.041196533103857 124.29285721296708)"><path d="M0 0 C0.04 21.05, 5.34 84.89, 0.25 126.32 C-4.84 167.75, -25.41 228.21, -30.54 248.59 M0 0 C0.04 21.05, 5.34 84.89, 0.25 126.32 C-4.84 167.75, -25.41 228.21, -30.54 248.59" stroke="#1e1e1e" stroke-width="2" fill="none"></path></g><g transform="translate(1940.5750260847474 1365.129807815044) rotate(0 -14.041196533103857 124.29285721296708)"><path d="M-32.24 223.64 C-31.68 231.95, -31.11 240.25, -30.54 248.59 M-32.24 223.64 C-31.78 230.41, -31.32 237.18, -30.54 248.59" stroke="#1e1e1e" stroke-width="2" fill="none"></path></g><g transform="translate(1940.5750260847474 1365.129807815044) rotate(0 -14.041196533103857 124.29285721296708)"><path d="M-15.81 228.38 C-20.72 235.11, -25.62 241.83, -30.54 248.59 M-15.81 228.38 C-19.81 233.87, -23.81 239.35, -30.54 248.59" stroke="#1e1e1e" stroke-width="2" fill="none"></path></g></g><mask></mask><g stroke-linecap="round"><g transform="translate(1995.08375846858 1357.6490660719192) rotate(0 -4.192885196077555 71.74364941440675)"><path d="M0 0 C0.23 10.05, 3.12 36.37, 1.4 60.29 C-0.32 84.2, -8.37 129.62, -10.33 143.49 M0 0 C0.23 10.05, 3.12 36.37, 1.4 60.29 C-0.32 84.2, -8.37 129.62, -10.33 143.49" stroke="#1e1e1e" stroke-width="2" fill="none"></path></g><g transform="translate(1995.08375846858 1357.6490660719192) rotate(0 -4.192885196077555 71.74364941440675)"><path d="M-15.13 118.95 C-13.62 126.67, -12.11 134.39, -10.33 143.49 M-15.13 118.95 C-13.87 125.41, -12.6 131.88, -10.33 143.49" stroke="#1e1e1e" stroke-width="2" fill="none"></path></g><g transform="translate(1995.08375846858 1357.6490660719192) rotate(0 -4.192885196077555 71.74364941440675)"><path d="M1.76 121.6 C-2.04 128.49, -5.85 135.37, -10.33 143.49 M1.76 121.6 C-1.42 127.37, -4.61 133.13, -10.33 143.49" stroke="#1e1e1e" stroke-width="2" fill="none"></path></g></g><mask></mask><g stroke-linecap="round"><g transform="translate(2030.224708235287 1361.8928486483794) rotate(0 17.873709246999056 15.55149076605872)"><path d="M0 0 C5.05 1.46, 24.36 3.61, 30.31 8.79 C36.27 13.97, 34.84 27.38, 35.75 31.1 M0 0 C5.05 1.46, 24.36 3.61, 30.31 8.79 C36.27 13.97, 34.84 27.38, 35.75 31.1" stroke="#1e1e1e" stroke-width="2" fill="none"></path></g><g transform="translate(2030.224708235287 1361.8928486483794) rotate(0 17.873709246999056 15.55149076605872)"><path d="M30.96 20.67 C32.84 24.77, 34.73 28.88, 35.75 31.1 M30.96 20.67 C32.13 23.22, 33.3 25.78, 35.75 31.1" stroke="#1e1e1e" stroke-width="2" fill="none"></path></g><g transform="translate(2030.224708235287 1361.8928486483794) rotate(0 17.873709246999056 15.55149076605872)"><path d="M38.78 20.03 C37.59 24.39, 36.39 28.75, 35.75 31.1 M38.78 20.03 C38.04 22.74, 37.3 25.45, 35.75 31.1" stroke="#1e1e1e" stroke-width="2" fill="none"></path></g></g><mask></mask><g stroke-linecap="round"><g transform="translate(1589.127602861938 635.1544921969576) rotate(0 193.91570039601345 263.929248376086)"><path d="M0 0 C59.43 10.65, 294.65 -24.07, 356.55 63.91 C418.46 151.89, 368.93 450.53, 371.41 527.86 M0 0 C59.43 10.65, 294.65 -24.07, 356.55 63.91 C418.46 151.89, 368.93 450.53, 371.41 527.86" stroke="#1e1e1e" stroke-width="2" fill="none"></path></g><g transform="translate(1589.127602861938 635.1544921969576) rotate(0 193.91570039601345 263.929248376086)"><path d="M364.35 503.88 C366.4 510.83, 368.45 517.79, 371.41 527.86 M364.35 503.88 C367.06 513.09, 369.78 522.31, 371.41 527.86" stroke="#1e1e1e" stroke-width="2" fill="none"></path></g><g transform="translate(1589.127602861938 635.1544921969576) rotate(0 193.91570039601345 263.929248376086)"><path d="M381.42 504.95 C378.52 511.59, 375.61 518.24, 371.41 527.86 M381.42 504.95 C377.57 513.75, 373.73 522.56, 371.41 527.86" stroke="#1e1e1e" stroke-width="2" fill="none"></path></g></g><mask></mask></svg>